<svg xmlns="http://www.w3.org/2000/svg" viewBox="0 0 726.75 394.98"><defs><style>.cls-1{fill:#0bbbd7;}.cls-1,.cls-2,.cls-3{fill-rule:evenodd;}.cls-2{fill:#4c4b4c;}.cls-3{fill:#fff;}</style></defs><title>everis_logoRecurso 1</title><g id="Capa_2" data-name="Capa 2"><g id="Layer_1" data-name="Layer 1"><path class="cls-1" d="M725.86,113.08C725.86,50.63,667.3,0,595.07,0s-130.8,50.63-130.8,113.08c0,1.12,0,2.23.06,3.33-.77,9.2-3.23,28.65-10.81,43.35-4.12,8-16.11,22.87-16.11,22.87l.16.05a24.12,24.12,0,0,0-7.72,17.42c0,14.4,13.49,26.07,30.13,26.07a33.35,33.35,0,0,0,3.9-.23v.18H591.37c1.23,0,2.46,0,3.7,0s2.47,0,3.7,0H605v-.27C672.61,221.45,725.86,172.64,725.86,113.08Z"/><path class="cls-1" d="M246.83,173.27c16.89,0,30.58,11.84,30.58,26.45s-13.69,26.45-30.58,26.45-30.58-11.84-30.58-26.45S229.94,173.27,246.83,173.27Z"/><path class="cls-1" d="M30.58,173.27c16.88,0,30.57,11.84,30.57,26.45s-13.69,26.45-30.57,26.45S0,214.33,0,199.72,13.69,173.27,30.58,173.27Z"/><path class="cls-2" d="M696.17,341.94c-1.38,0-2.71,0-4,0V314.33h-.32c-3.21-39-40.75-69.76-86.58-69.76-47.95,0-86.81,33.67-86.81,75.2S557.34,395,605.29,395c2.25,0,4.47-.07,6.68-.22.65.05,1.31.07,2,.07h85.74c11.09,0,20.5-6.17,23.91-14.76a23.36,23.36,0,0,0,3.15-11.68C726.75,353.78,713.06,341.94,696.17,341.94Zm-91.28,7.66c-18.85,0-34.13-13.21-34.13-29.52s15.28-29.51,34.13-29.51S639,303.78,639,320.08,623.73,349.6,604.89,349.6Z"/><path class="cls-2" d="M491,270.63c-.69-14.07-14.1-25.29-30.54-25.29s-29.84,11.22-30.54,25.29h0v98.14h0c.7,14.07,14.1,25.3,30.54,25.3s29.85-11.23,30.54-25.3h0V270.63Z"/><path class="cls-2" d="M389.52,245.33q-3.06,0-5.76.09v-20h-.09c-1.13-13.71-14.35-24.53-30.49-24.53s-29.35,10.82-30.49,24.53h-.09V368.77h0c.7,14.07,14.1,25.3,30.54,25.3s29.85-11.23,30.55-25.3h0V298.15c1.8.05,3.71.09,5.76.09,16.89,0,30.58-11.85,30.58-26.46S406.41,245.33,389.52,245.33Z"/><path class="cls-2" d="M276.49,270.63c-.7-14.07-14.11-25.29-30.55-25.29s-29.84,11.22-30.54,25.29h0v98.14h0c.7,14.07,14.1,25.3,30.54,25.3s29.85-11.23,30.55-25.3h0V270.63Z"/><path class="cls-2" d="M168.31,225.4c-1.14-13.71-14.35-24.53-30.49-24.53s-29.35,10.82-30.49,24.53h-.09V368.77h0c.69,14.07,14.1,25.3,30.54,25.3s29.84-11.23,30.54-25.3h0V225.4Z"/><path class="cls-2" d="M61.12,270.63c-.7-14.07-14.1-25.29-30.54-25.29S.73,256.56,0,270.63H0v98.14H0c.7,14.07,14.11,25.3,30.55,25.3s29.84-11.23,30.54-25.3h0V270.63Z"/><path class="cls-3" d="M604.89,58.27c24.23,0,43.87,17,43.87,37.95s-19.64,37.95-43.87,37.95S561,117.18,561,96.22,580.66,58.27,604.89,58.27Z"/></g></g></svg>