<svg id="Layer_1" data-name="Layer 1" xmlns="http://www.w3.org/2000/svg" viewBox="0 0 233.52 51.43"><defs><style>.cls-1{fill:#2f4050;}.cls-2{fill:#ff6c0c;}</style></defs><title>logo-color</title><path class="cls-1" d="M217.15,31.79V21.37c0-.81-.69-1-1.46-1.24a15.69,15.69,0,0,0-4.45-.64,16.68,16.68,0,0,0-3,.27,7,7,0,0,0-5.83,5.29,14.12,14.12,0,0,0,.06,7.3,6.82,6.82,0,0,0,4.71,4.81,8.48,8.48,0,0,0,2.25.44c.43,0,.91,0,1.48,0a7.87,7.87,0,0,0,2-.21c.72-.19,1.06-.48,1.06,0,0,1.42-1.42,3.18-5,2.9-.73-.06-1,0-1,.47v1.65c0,.52.45.56,1,.62,4.69.51,8.18-2.9,8.18-6.65Zm-3.17,2c0,.73-.06,1.05-.76,1.22a11,11,0,0,1-2.56.25,8.66,8.66,0,0,1-1.15-.07,4.83,4.83,0,0,1-3.61-2.93,9.7,9.7,0,0,1-.61-5.51,7.14,7.14,0,0,1,.4-1.43,4.66,4.66,0,0,1,4.37-3.26,9.92,9.92,0,0,1,2.87.21c.56.13,1,.26,1,.79V33.83Z"/><path class="cls-1" d="M164.52,32.11a4.51,4.51,0,0,0-2.13-3.45,10.36,10.36,0,0,0-2-.9,21.29,21.29,0,0,1-4.28-1.28,1.77,1.77,0,0,1-.75-1.41,2.31,2.31,0,0,1,1.69-2.4,4.92,4.92,0,0,1,3,.22c1.21.36,1.88.74,2.4.92.33.11.61.12.73-.28.06-.21.48-1.35.55-1.56.12-.4,0-.55-.45-.74A12.22,12.22,0,0,0,158.19,20a8.64,8.64,0,0,0-1.34.1,5.83,5.83,0,0,0-3.14,1.6,5,5,0,0,0-.35,6.09A5.38,5.38,0,0,0,156,29.56c1.61.51,3.7.71,4.41,1.21a2,2,0,0,1,1.1,2.34,1.82,1.82,0,0,1-1.06,1.33,6.06,6.06,0,0,1-1.13.35,7.35,7.35,0,0,1-1.16.12,9.16,9.16,0,0,1-2.51-.4c-.42-.12-2.14-.74-2.28-.78-.42-.13-.5.12-.61.42l-.53,1.66c-.14.44,0,.54.69.81A14.5,14.5,0,0,0,158,37.71a11.64,11.64,0,0,0,3.05-.37,4.2,4.2,0,0,0,3-2.52A5.6,5.6,0,0,0,164.52,32.11Z"/><rect class="cls-1" x="74.09" y="15.19" width="3.18" height="3.18" rx="0.53"/><rect class="cls-1" x="74.09" y="20.87" width="3.18" height="16.61" rx="0.53"/><rect class="cls-1" x="178.12" y="15.19" width="3.18" height="3.18" rx="0.53"/><rect class="cls-1" x="178.12" y="20.84" width="3.18" height="16.61" rx="0.53"/><path class="cls-1" d="M141.94,20.31c-4.49,0-8.13,3-8.13,8.66s3.64,8.65,8.13,8.65,8.12-2.82,8.12-8.65C150.06,23.49,146.53,20.31,141.94,20.31Zm0,15c-2.83,0-4.77-2.6-4.77-6.3,0-3.9,1.94-6.31,4.77-6.31s4.77,2.41,4.77,6.31C146.71,33.05,144.77,35.27,141.94,35.27Z"/><path class="cls-1" d="M131.5,29.52a21.33,21.33,0,0,0-.16-2.6,6.92,6.92,0,0,0-6.16-6.37,16.31,16.31,0,0,0-2.64-.21,16.78,16.78,0,0,0-2.68.22.18.18,0,0,1-.2-.18V15.75a.53.53,0,0,0-.53-.53H117a.53.53,0,0,0-.53.53V37a.53.53,0,0,0,.53.53h2.12a.53.53,0,0,0,.53-.53v-13c0-.6.17-.71.64-.79a15.94,15.94,0,0,1,2.6-.23,10.39,10.39,0,0,1,1.74.13,4.71,4.71,0,0,1,3.23,3.25,9.06,9.06,0,0,1,.44,3.08c0,1.61,0,7.57,0,7.57a.53.53,0,0,0,.53.53H131a.53.53,0,0,0,.53-.53Z"/><path class="cls-1" d="M170.9,23.83h4.24a.53.53,0,0,0,.53-.53V21.37a.53.53,0,0,0-.53-.53h-4.24a.53.53,0,0,1-.53-.53V15.72a.53.53,0,0,0-.53-.53h-2.12a.53.53,0,0,0-.53.53V26.85c0,3.79-.53,10.6,6.89,10.6h1.06a.53.53,0,0,0,.53-.53V35a.53.53,0,0,0-.53-.53h-1.06c-3.91,0-3.72-2.92-3.72-6.8V24.36A.53.53,0,0,1,170.9,23.83Z"/><path class="cls-1" d="M84.43,32.61Z"/><path class="cls-1" d="M96.27,29.18a21.21,21.21,0,0,0-.16-2.6C95.64,23,93.51,21,90,20.39a16.31,16.31,0,0,0-2.64-.22,21.26,21.26,0,0,0-5.22.72c-.74.2-.83.4-.84,1.13v14.9a.53.53,0,0,0,.53.53H83.9a.53.53,0,0,0,.53-.53V23.68c0-.61.11-.74.66-.8a14,14,0,0,1,2.46-.24,9.64,9.64,0,0,1,1.78.14,4.54,4.54,0,0,1,3.3,3.12,9.48,9.48,0,0,1,.45,3.15c0,1.64,0,5.95,0,5.95v2a.53.53,0,0,0,.53.53h2.12a.53.53,0,0,0,.53-.53V29.18Z"/><path class="cls-1" d="M69.47,15.19H67.68a.69.69,0,0,0-.7.69v4.93a.2.2,0,0,1-.24.19,15.9,15.9,0,0,0-3.89-.43c-4.42,0-7.88,2.92-7.88,8.57s3.53,8.64,8.3,8.66a23.13,23.13,0,0,0,3.91-.26A9.27,9.27,0,0,0,69.47,37c.35-.18.69-.42.69-.8V15.88A.69.69,0,0,0,69.47,15.19ZM63.39,35.33a4.38,4.38,0,0,1-3.79-1.61,6.76,6.76,0,0,1-1.49-4.58c0-2.21.58-3.75,1.73-4.77A4.66,4.66,0,0,1,63.27,23c3.1,0,3.71.78,3.71,1.41v9.54C67,35,66.48,35.33,63.39,35.33Z"/><path class="cls-1" d="M113.19,27c0-3.53-1.71-5.54-4-6.26a10.51,10.51,0,0,0-2.16-.5,12.54,12.54,0,0,0-1.74-.06c-.62,0-1.33.07-1.93.14a12.3,12.3,0,0,0-2.14.5c-.4.12-.9.34-1.14.42a.26.26,0,0,0-.17.28c.1.33.46,1.55.6,2a.24.24,0,0,0,.29.09s.28-.1.92-.28a12,12,0,0,1,3.77-.62l.81,0a5,5,0,0,1,2.14.59c1.23.73,1.65,1.55,1.65,3.25a.33.33,0,0,1-.4.33A10.47,10.47,0,0,0,107,26.6c-5.47,0-8.22,2.45-8.22,5.65s3,5.65,8.66,5.65a13.52,13.52,0,0,0,5.5-1,.55.55,0,0,0,.3-.48V27ZM110.1,34.7a.51.51,0,0,1-.43.53,5.91,5.91,0,0,1-.93.19,17.46,17.46,0,0,1-2.2.16,9,9,0,0,1-2.21-.25,3.51,3.51,0,0,1-1.91-1.08,3.09,3.09,0,0,1-.7-2,2.84,2.84,0,0,1,.58-1.93,4.09,4.09,0,0,1,2.2-1.25,8.29,8.29,0,0,1,2.15-.24,10.26,10.26,0,0,1,2.86.46.88.88,0,0,1,.59.71V34.7Z"/><path class="cls-1" d="M188.05,32.57Z"/><path class="cls-1" d="M199.89,29.14a23.16,23.16,0,0,0-.15-2.59c-.48-3.57-2.61-5.6-6.17-6.2a16.22,16.22,0,0,0-2.64-.21,21.15,21.15,0,0,0-5.21.71c-.75.2-.83.41-.85,1.13v14.9a.53.53,0,0,0,.53.53h2.12a.53.53,0,0,0,.53-.53V23.64c0-.6.11-.73.66-.8a13.51,13.51,0,0,1,2.47-.23,9.71,9.71,0,0,1,1.77.13,4.59,4.59,0,0,1,3.31,3.13,9.7,9.7,0,0,1,.45,3.15v7.9a.53.53,0,0,0,.53.53h2.12a.53.53,0,0,0,.53-.53V29.14Z"/><path class="cls-2" d="M45.17,31.9,34.28,13.05a3.76,3.76,0,0,0-6.52,0L16.88,31.9a3.77,3.77,0,0,0,3.26,5.65H41.9A3.77,3.77,0,0,0,45.17,31.9Zm-6.23,2.52H23.11a2.36,2.36,0,0,1-2.05-3.55L29,17.15a2.37,2.37,0,0,1,4.1,0L41,30.87A2.37,2.37,0,0,1,38.94,34.42Z"/></svg>